<?xml version="1.0" encoding="UTF-8" standalone="no"?>
<!DOCTYPE svg PUBLIC "-//W3C//DTD SVG 1.1//EN" "http://www.w3.org/Graphics/SVG/1.1/DTD/svg11.dtd">
<svg width="100%" height="100%" viewBox="0 0 48 10" version="1.1" xmlns="http://www.w3.org/2000/svg" xmlns:xlink="http://www.w3.org/1999/xlink" xml:space="preserve" xmlns:serif="http://www.serif.com/" style="fill-rule:evenodd;clip-rule:evenodd;stroke-linejoin:round;stroke-miterlimit:2;">
    <g>
        <g>
            <path d="M24.421,1.439C24.417,1.436 24.413,1.432 24.409,1.429C24.375,1.4 24.333,1.385 24.29,1.385L23.994,1.385C23.98,1.385 23.965,1.387 23.949,1.391C23.916,1.399 23.886,1.416 23.862,1.439C23.827,1.475 23.808,1.521 23.808,1.571L23.808,8.019C23.808,8.04 23.812,8.061 23.819,8.082C23.822,8.089 23.824,8.095 23.828,8.102C23.837,8.121 23.849,8.137 23.862,8.151C23.867,8.156 23.873,8.16 23.88,8.166C23.913,8.191 23.953,8.205 23.994,8.205L24.29,8.205C24.302,8.205 24.314,8.204 24.326,8.202C24.362,8.195 24.395,8.177 24.421,8.151C24.447,8.125 24.465,8.092 24.472,8.055C24.475,8.043 24.476,8.031 24.476,8.019L24.476,1.571C24.476,1.559 24.475,1.547 24.472,1.535C24.465,1.498 24.447,1.465 24.421,1.439" style="fill:rgb(77,77,77);fill-rule:nonzero;"/>
            <path d="M34.433,1.4C34.41,1.39 34.386,1.385 34.361,1.385L34.002,1.385C33.975,1.385 33.947,1.391 33.923,1.403C33.898,1.414 33.876,1.432 33.858,1.453L31.437,4.407C31.434,4.411 31.429,4.414 31.424,4.416C31.42,4.418 31.416,4.419 31.413,4.419L31.407,4.418C31.4,4.417 31.397,4.416 31.397,4.416C31.394,4.415 31.392,4.414 31.39,4.412C31.388,4.41 31.386,4.409 31.385,4.407L28.959,1.453C28.924,1.41 28.872,1.386 28.815,1.385L28.462,1.385C28.449,1.385 28.437,1.386 28.425,1.388C28.4,1.393 28.377,1.403 28.355,1.418C28.345,1.425 28.337,1.432 28.33,1.439C28.304,1.466 28.286,1.499 28.279,1.534C28.276,1.546 28.275,1.559 28.275,1.571L28.275,8.019C28.275,8.031 28.276,8.044 28.279,8.056C28.286,8.092 28.304,8.125 28.33,8.151C28.356,8.177 28.389,8.195 28.425,8.202C28.437,8.204 28.449,8.205 28.462,8.205L28.757,8.205C28.771,8.205 28.786,8.203 28.802,8.2C28.835,8.191 28.865,8.174 28.889,8.151C28.898,8.142 28.905,8.133 28.912,8.122C28.933,8.092 28.943,8.056 28.943,8.019L28.943,2.43L31.266,5.276C31.275,5.286 31.285,5.296 31.296,5.305C31.329,5.33 31.369,5.344 31.414,5.344C31.469,5.344 31.521,5.318 31.555,5.276L33.874,2.43L33.874,8.019C33.874,8.04 33.878,8.061 33.885,8.082C33.888,8.089 33.891,8.095 33.894,8.102C33.903,8.121 33.915,8.137 33.928,8.151C33.964,8.186 34.01,8.205 34.06,8.205L34.363,8.205C34.376,8.205 34.388,8.204 34.4,8.201C34.412,8.199 34.424,8.195 34.435,8.19C34.457,8.181 34.476,8.167 34.493,8.15C34.51,8.133 34.523,8.113 34.532,8.091C34.542,8.068 34.547,8.044 34.547,8.019L34.547,1.571C34.547,1.496 34.502,1.429 34.433,1.4" style="fill:rgb(77,77,77);fill-rule:nonzero;"/>
            <path d="M20.698,7.678C20.69,7.669 20.68,7.661 20.67,7.654C20.639,7.634 20.604,7.623 20.567,7.623L17.455,7.623L17.455,1.571C17.455,1.521 17.435,1.475 17.4,1.439C17.365,1.404 17.318,1.385 17.269,1.385L16.973,1.385C16.961,1.385 16.948,1.386 16.936,1.388C16.9,1.396 16.867,1.413 16.841,1.439C16.833,1.448 16.825,1.458 16.818,1.468C16.797,1.498 16.787,1.534 16.787,1.571L16.787,8.019C16.787,8.031 16.788,8.044 16.79,8.056C16.795,8.08 16.804,8.102 16.818,8.122C16.825,8.133 16.833,8.142 16.841,8.151C16.848,8.158 16.856,8.164 16.864,8.17C16.886,8.186 16.911,8.197 16.936,8.202C16.948,8.204 16.961,8.205 16.973,8.205L20.567,8.205C20.579,8.205 20.591,8.204 20.603,8.202C20.639,8.195 20.672,8.177 20.698,8.151C20.707,8.142 20.715,8.133 20.722,8.122C20.735,8.102 20.745,8.08 20.749,8.056C20.752,8.044 20.753,8.031 20.753,8.019L20.753,7.809C20.753,7.772 20.742,7.737 20.722,7.706C20.715,7.696 20.707,7.686 20.698,7.678" style="fill:rgb(77,77,77);fill-rule:nonzero;"/>
            <path d="M47.772,1.499C47.763,1.476 47.75,1.456 47.732,1.439C47.697,1.404 47.651,1.385 47.601,1.385L42.298,1.385C42.273,1.385 42.249,1.39 42.226,1.4C42.215,1.404 42.204,1.41 42.194,1.417C42.143,1.451 42.112,1.509 42.112,1.571L42.112,1.781C42.112,1.824 42.128,1.866 42.156,1.9C42.159,1.905 42.163,1.909 42.167,1.913C42.202,1.948 42.249,1.967 42.298,1.967L44.613,1.967L44.613,8.019C44.613,8.044 44.618,8.069 44.628,8.092C44.637,8.114 44.651,8.134 44.668,8.151C44.703,8.186 44.75,8.205 44.799,8.205L45.1,8.205C45.203,8.205 45.286,8.122 45.286,8.019L45.286,1.967L47.601,1.967C47.651,1.967 47.697,1.948 47.733,1.913C47.741,1.904 47.749,1.894 47.756,1.884C47.767,1.867 47.776,1.847 47.781,1.825C47.785,1.809 47.787,1.795 47.787,1.781L47.787,1.571C47.787,1.546 47.782,1.522 47.772,1.499" style="fill:rgb(77,77,77);fill-rule:nonzero;"/>
            <path d="M38.974,1.439C38.939,1.404 38.892,1.385 38.842,1.385L38.547,1.385C38.532,1.385 38.516,1.387 38.5,1.391C38.478,1.397 38.458,1.406 38.44,1.418C38.431,1.425 38.423,1.432 38.415,1.439C38.406,1.448 38.399,1.458 38.392,1.468C38.378,1.488 38.369,1.511 38.364,1.534C38.362,1.546 38.36,1.559 38.36,1.571L38.36,8.019C38.36,8.031 38.362,8.044 38.364,8.056C38.369,8.08 38.378,8.102 38.392,8.122C38.399,8.133 38.406,8.142 38.415,8.151C38.45,8.186 38.497,8.205 38.547,8.205L38.842,8.205C38.856,8.205 38.871,8.203 38.887,8.2C38.92,8.191 38.951,8.174 38.974,8.151C38.983,8.142 38.991,8.132 38.997,8.122C39.018,8.092 39.029,8.056 39.029,8.019L39.029,1.571C39.029,1.534 39.018,1.498 38.997,1.468C38.991,1.458 38.983,1.448 38.974,1.439" style="fill:rgb(77,77,77);fill-rule:nonzero;"/>
        </g>
        <path d="M7.048,2.294L2.861,2.294C2.803,2.294 2.755,2.246 2.755,2.188L2.755,0.578C2.755,0.52 2.803,0.472 2.861,0.472L9.02,0.472C9.048,0.472 9.075,0.483 9.095,0.503C9.115,0.523 9.126,0.55 9.126,0.578L9.126,9.012C9.126,9.07 9.078,9.118 9.02,9.118L7.41,9.118C7.352,9.118 7.304,9.07 7.304,9.012L7.304,2.551C7.304,2.409 7.189,2.294 7.048,2.294M6.851,3.06L6.851,6.737C6.851,6.796 6.804,6.843 6.745,6.843L5.136,6.843C5.077,6.843 5.03,6.796 5.03,6.737L5.03,4.933C5.03,4.905 5.041,4.878 5.061,4.858L5.809,4.11L6.851,3.06ZM3.076,2.747L6.531,2.747L4.803,4.475L3.076,2.747ZM4.576,4.933L4.576,6.737C4.576,6.796 4.529,6.843 4.471,6.843L2.861,6.843C2.849,6.843 2.838,6.841 2.825,6.837L2.824,6.837C2.783,6.821 2.755,6.782 2.755,6.737L2.755,3.068L4.546,4.858C4.565,4.878 4.576,4.905 4.576,4.933M0.48,0.578C0.48,0.52 0.528,0.472 0.586,0.472L2.196,0.472C2.254,0.472 2.302,0.52 2.302,0.578L2.302,7.04C2.302,7.148 2.37,7.245 2.472,7.281C2.5,7.291 2.529,7.296 2.559,7.296L6.745,7.296C6.804,7.296 6.851,7.344 6.851,7.402L6.851,9.012C6.851,9.07 6.804,9.118 6.745,9.118L0.586,9.118C0.558,9.118 0.531,9.107 0.511,9.087C0.491,9.067 0.48,9.04 0.48,9.012L0.48,0.578ZM9.504,0.094C9.456,0.047 9.39,0.019 9.322,0.019L2.559,0.019C2.549,0.019 2.539,0.02 2.529,0.021C2.519,0.02 2.508,0.019 2.498,0.019L0.284,0.019C0.142,0.019 0.027,0.134 0.027,0.276L0.027,9.314C0.027,9.383 0.054,9.447 0.102,9.496C0.151,9.544 0.215,9.571 0.284,9.571L7.048,9.571C7.058,9.571 7.068,9.57 7.078,9.569C7.088,9.57 7.098,9.571 7.108,9.571L9.322,9.571C9.464,9.571 9.579,9.456 9.579,9.314L9.579,0.276C9.579,0.207 9.552,0.143 9.504,0.094" style="fill:url(#_Linear1);fill-rule:nonzero;"/>
    </g>
    <defs>
        <linearGradient id="_Linear1" x1="0" y1="0" x2="1" y2="0" gradientUnits="userSpaceOnUse" gradientTransform="matrix(-19.68,20.16,-20.16,-19.68,14.64,-5.28)"><stop offset="0" style="stop-color:rgb(52,89,166);stop-opacity:1"/><stop offset="1" style="stop-color:rgb(60,168,146);stop-opacity:1"/></linearGradient>
    </defs>
</svg>
